/* XPM */
static const char * delete_icon[] = {
"17 17 100 2",
"  	c None",
". 	c #6A3936",
"+ 	c #672F2A",
"@ 	c #703B36",
"# 	c #612621",
"$ 	c #5C1F1A",
"% 	c #5C1D18",
"& 	c #541A16",
"* 	c #F6E7E7",
"= 	c #F3DADA",
"- 	c #F3D7D5",
"; 	c #EABEB9",
"> 	c #E6B9B5",
", 	c #D7A29C",
"' 	c #A15C54",
") 	c #3B1414",
"! 	c #FFFFFF",
"~ 	c #DB7975",
"{ 	c #DA807C",
"] 	c #D98680",
"^ 	c #D27E78",
"/ 	c #CA7169",
"( 	c #C56460",
"_ 	c #BB4744",
": 	c #901414",
"< 	c #341414",
"[ 	c #D97570",
"} 	c #DF7F7B",
"| 	c #DD7772",
"1 	c #DF8580",
"2 	c #DC7D78",
"3 	c #DE7E7A",
"4 	c #D4817C",
"5 	c #D16E66",
"6 	c #A71414",
"7 	c #8E1414",
"8 	c #291414",
"9 	c #F6ECEB",
"0 	c #DA7D7A",
"a 	c #DF7E7D",
"b 	c #DB746F",
"c 	c #FEF3F3",
"d 	c #D46B66",
"e 	c #DC7875",
"f 	c #D46C67",
"g 	c #CA544E",
"h 	c #C12C24",
"i 	c #671414",
"j 	c #1A1414",
"k 	c #F3D8D7",
"l 	c #D77570",
"m 	c #DE7A78",
"n 	c #C0231C",
"o 	c #A61414",
"p 	c #7A1414",
"q 	c #1E1414",
"r 	c #F1C8C6",
"s 	c #DA7F7B",
"t 	c #CB655E",
"u 	c #C23333",
"v 	c #B51414",
"w 	c #7D1414",
"x 	c #642722",
"y 	c #EABFBB",
"z 	c #CB6661",
"A 	c #DC7B77",
"B 	c #DD7978",
"C 	c #CB635C",
"D 	c #C65451",
"E 	c #C55252",
"F 	c #E7B8B4",
"G 	c #CA655D",
"H 	c #DC7A78",
"I 	c #CE6F67",
"J 	c #B81515",
"K 	c #D9A8A2",
"L 	c #C56058",
"M 	c #D47D77",
"N 	c #C75950",
"O 	c #BC1414",
"P 	c #AE7269",
"Q 	c #C15350",
"R 	c #CA5953",
"S 	c #C85148",
"T 	c #C55047",
"U 	c #C13228",
"V 	c #961414",
"W 	c #6A1414",
"X 	c #411414",
"Y 	c #C0231F",
"Z 	c #C2271F",
"` 	c #BE2727",
" .	c #BA1414",
"..	c #B71414",
"+.	c #B41414",
"@.	c #761414",
"#.	c #2F1414",
"$.	c #B51616",
"%.	c #911414",
"&.	c #6B1414",
"                                  ",
"          . + @ # $ % &           ",
"        . * = - ; > , ' )         ",
"      . ! ~ { ] ^ / ( _ : <       ",
"    . ! [ } | 1 2 3 4 5 6 7 8     ",
"  . 9 0 a b c d e f c g h 6 i j   ",
"  . k l m c c c f c c c n o p q   ",
"  . r f s f c c c c c t u v w q   ",
"  x y z A B f c c c C D E v w q   ",
"  $ F G H f c c c c c I J o w q   ",
"  % K L M c c c N c c c O o p q   ",
"  & P Q R S c N T U c v o V W j   ",
"    X : 6 Y Z `  ...+.o V @.#.    ",
"      < 7 6 v $.v o o %.@.#.      ",
"        < &.p w w w p W #.        ",
"          j q q q q q j           ",
"                                  "};
