/* XPM */
static const char * editcut[] = {
"16 16 78 1",
" 	c None",
".	c #846F3D",
"+	c #7A6233",
"@	c #C5AC67",
"#	c #B0934C",
"$	c #BC972F",
"%	c #493103",
"&	c #D8C17A",
"*	c #000000",
"=	c #987200",
"-	c #432B00",
";	c #BA9625",
">	c #030000",
",	c #9D7800",
"'	c #422B00",
")	c #594620",
"!	c #BEAC80",
"~	c #6A5222",
"{	c #5F3F00",
"]	c #8A5900",
"^	c #B57A00",
"/	c #46320A",
"(	c #E3D1A2",
"_	c #826D48",
":	c #BB9124",
"<	c #3C2500",
"[	c #372200",
"}	c #1C1810",
"|	c #AF780F",
"1	c #B59958",
"2	c #514939",
"3	c #7F5501",
"4	c #412F0F",
"5	c #181D25",
"6	c #EDE6DA",
"7	c #805100",
"8	c #AE7609",
"9	c #503400",
"0	c #7F5300",
"a	c #754E00",
"b	c #412D09",
"c	c #636363",
"d	c #454647",
"e	c #F0F4FA",
"f	c #261600",
"g	c #060200",
"h	c #291900",
"i	c #5B3C00",
"j	c #392500",
"k	c #6B6B6B",
"l	c #ECECEC",
"m	c #2C2C2C",
"n	c #F1F2F3",
"o	c #101214",
"p	c #322100",
"q	c #707070",
"r	c #F3F3F3",
"s	c #5F5F5F",
"t	c #2D2D2D",
"u	c #EDEDED",
"v	c #141414",
"w	c #010101",
"x	c #D3D3D3",
"y	c #292929",
"z	c #DDDDDD",
"A	c #6C6C6C",
"B	c #303030",
"C	c #CDCDCD",
"D	c #050505",
"E	c #363636",
"F	c #D4D4D4",
"G	c #1B1B1B",
"H	c #0D0D0D",
"I	c #3E3E3E",
"J	c #515151",
"K	c #2E2E2E",
"L	c #262626",
"M	c #0F0F0F",
"       .+       ",
"      @#$%      ",
"      &*=-      ",
"      ;>,' )!~  ",
"      {]^*/(_:< ",
"      [}|*12*34 ",
"       567890ab ",
"      cdefghij  ",
"     klmno  p   ",
"    qrstuv      ",
"   wxc*yzv      ",
"   qA* BCv      ",
"   mD  EFG      ",
"   H   IJ       ",
"       KL       ",
"       M        "};
