/* XPM */
static const char * enixs50[] = {
"50 45 187 2",
"  	c None",
". 	c #FFFFFF",
"+ 	c #D7E5F5",
"@ 	c #B2CDEB",
"# 	c #D6E4F4",
"$ 	c #F6F9FD",
"% 	c #C5DAF0",
"& 	c #6EA1D9",
"* 	c #6098D6",
"= 	c #528FD2",
"- 	c #5F97D5",
"; 	c #ACC9E9",
"> 	c #F5F9FC",
", 	c #FEFEFF",
"' 	c #FCFDFE",
") 	c #C1D4EE",
"! 	c #EFF4FB",
"~ 	c #FEFFFF",
"{ 	c #FDFEFF",
"] 	c #FDFDFE",
"^ 	c #97BCE4",
"/ 	c #93B9E3",
"( 	c #FAFCFE",
"_ 	c #D6E3F4",
": 	c #A1BEE6",
"< 	c #9BBAE4",
"[ 	c #B8CEEC",
"} 	c #BCD4EE",
"| 	c #75A6DB",
"1 	c #89B3E0",
"2 	c #F4F8FC",
"3 	c #D7E4F4",
"4 	c #ADC6E9",
"5 	c #A5C1E7",
"6 	c #AEC7E9",
"7 	c #B2CAEA",
"8 	c #EBF1FA",
"9 	c #CCDDF2",
"0 	c #C0D5EE",
"a 	c #6198D6",
"b 	c #5490D2",
"c 	c #5C96D5",
"d 	c #6CA0D9",
"e 	c #9BBFE5",
"f 	c #BFD8EF",
"g 	c #7CABDD",
"h 	c #538FD2",
"i 	c #DEEAF7",
"j 	c #F5F8FC",
"k 	c #ADC7E9",
"l 	c #A2BFE6",
"m 	c #EBF1F9",
"n 	c #C9DCF1",
"o 	c #5792D3",
"p 	c #83AFDF",
"q 	c #B8D3ED",
"r 	c #DBEAF6",
"s 	c #86B1E0",
"t 	c #B3CAEA",
"u 	c #D2E0F3",
"v 	c #E8F0F9",
"w 	c #70A3DA",
"x 	c #5490D3",
"y 	c #77A8DC",
"z 	c #D7E8F5",
"A 	c #DAE9F6",
"B 	c #CBDFF2",
"C 	c #699ED8",
"D 	c #5390D2",
"E 	c #CEDFF2",
"F 	c #F9FBFD",
"G 	c #6DA0D9",
"H 	c #518DD1",
"I 	c #6E99D7",
"J 	c #99B5E2",
"K 	c #AFC4E8",
"L 	c #BACBEB",
"M 	c #D5E4F4",
"N 	c #C9DEF1",
"O 	c #6299D6",
"P 	c #D4E3F4",
"Q 	c #D8E4F4",
"R 	c #EDF3FA",
"S 	c #73A4DB",
"T 	c #77A2DA",
"U 	c #001AAD",
"V 	c #B0C1E8",
"W 	c #C3D6EF",
"X 	c #5B95D4",
"Y 	c #6A9FD8",
"Z 	c #CCE0F2",
"` 	c #C3D4EE",
" .	c #F0F4FB",
"..	c #A6C1E7",
"+.	c #B7CDEB",
"@.	c #E5EDF8",
"#.	c #F1F6FB",
"$.	c #6FA2D9",
"%.	c #699FD8",
"&.	c #C6D6EF",
"*.	c #051FAF",
"=.	c #1830B5",
"-.	c #B5C6E9",
";.	c #A0BDE5",
">.	c #E7EEF8",
",.	c #EAF1FA",
"'.	c #72A3DA",
").	c #6BA0D9",
"!.	c #CADFF2",
"~.	c #3048BD",
"{.	c #A0BEE5",
"].	c #B1C9EA",
"^.	c #A1BEE5",
"/.	c #70A2DA",
"(.	c #D0E2F3",
"_.	c #223BB8",
":.	c #9DAFE1",
"<.	c #A1B3E3",
"[.	c #DCEBF6",
"}.	c #F1F7FB",
"|.	c #B3CBEB",
"1.	c #9CBBE4",
"2.	c #F4F7FC",
"3.	c #9EBCE5",
"4.	c #A4C1E7",
"5.	c #C0D3EE",
"6.	c #ABC9E9",
"7.	c #A6C7E8",
"8.	c #1029B2",
"9.	c #F0F6FB",
"0.	c #D9E5F5",
"a.	c #E3ECF8",
"b.	c #FBFCFE",
"c.	c #BBD0ED",
"d.	c #99B9E3",
"e.	c #679BD7",
"f.	c #6DA1D9",
"g.	c #E8F2F9",
"h.	c #A7C2E7",
"i.	c #C7D8F0",
"j.	c #2941BB",
"k.	c #BDCDEC",
"l.	c #E0EDF7",
"m.	c #FBFDFE",
"n.	c #F2F6FB",
"o.	c #F0F5FB",
"p.	c #AFCBEA",
"q.	c #2F46BD",
"r.	c #ECF4FA",
"s.	c #E7EEF9",
"t.	c #BFD3EE",
"u.	c #CDD2EF",
"v.	c #D3E1F3",
"w.	c #ADCBEA",
"x.	c #73A5DB",
"y.	c #D9E9F5",
"z.	c #A8C3E8",
"A.	c #72A4DA",
"B.	c #CEE2F3",
"C.	c #D8E7F5",
"D.	c #D2E3F3",
"E.	c #C6DAF0",
"F.	c #FCFCFE",
"G.	c #CDDDF2",
"H.	c #ACC5E8",
"I.	c #BED5EE",
"J.	c #71A4DA",
"K.	c #BFD7EF",
"L.	c #D4E6F4",
"M.	c #C5DBF0",
"N.	c #96BCE4",
"O.	c #7DABDD",
"P.	c #9ABBE4",
"Q.	c #9FBDE5",
"R.	c #E9F0F9",
"S.	c #C4D6EF",
"T.	c #D0DFF2",
"U.	c #8AB3E1",
"V.	c #7DACDD",
"W.	c #8FB8E2",
"X.	c #CADDF1",
"Y.	c #BED2ED",
"Z.	c #CCDCF1",
"`.	c #8FB6E2",
" +	c #8CB5E1",
".+	c #BBD3ED",
"++	c #FAFBFE",
"                                                                                                    ",
"                                                                                                    ",
"                                                                                                    ",
"                                                                                                    ",
"                                                                                                    ",
"                                                                                                    ",
"                                                                                                    ",
"                                                                                                    ",
"                                                                                                    ",
"                                                                                                    ",
"                                                                                                    ",
"                                                            + @ @ #                                 ",
"                                              $ + + % & & & * = = - & & & & ; + >                   ",
"            , , , , ' ) ) ) ) ! , , , ~   { ] ^ = = = = = = = = = = = = = = = = / ,                 ",
"        ( _ : < < < < < < < < < < < < [ } | = = = = = = = = = = = = = = = = = = = 1 (               ",
"    2 3 4 5 6 7 8 8 8 8 8 8 8 8 8 9 0 a b = = = = c d e f f f f f f f f f g d h = = i               ",
"  j k < l m                     n o = = = = = = p q r r r r r r r r r r r r r s = = 1               ",
"  t < u ]                   v w x = = = = y z z A r r r r r r r r r r r r r r A B C D E             ",
"F 6 < (                   @ G = = = H I J K L L L L L L L L L L L L L L L M r r r N O P             ",
"Q < < (                 R S = = = = T U U U U U U U U U U U U U U U U U U V r r r r /               ",
"' W < (               } X = = = Y Z ` U U U U U U U U U U U U U U U U U U V r r r r /               ",
"   ...+.@.          #.$.= = = %.N r &.U U U U *.=.=.=.=.=.=.=.=.=.=.=.=.=.-.r r r r P '             ",
"      ;.: >.      ,.'.= = = ).!.r r &.U U U U ~.r r r r r r r r r r r r r r r r r r {.W             ",
"      ].< ^.@.  v /.= = = C (.r r r &.U U U U _.:.:.:.:.:.:.:.:.<.r r r r r r r [.}.|.1...2.        ",
"      2.3 3.4.5.6.= = = b 7.r r r r &.U U U U U U U U U U U U U 8.r r r r r r [.9.  j 0.l [ a.b.    ",
"          a.c.d.e.= = = f.r r r r r &.U U U U U U U U U U U U U 8.r r r r r r g.          h.< i.    ",
"            b.@.= = = = f.r r r r r &.U U U U j.L L L L L L L L k.r r r r r l.m.          n.[ l o.  ",
"              p.= = = = f.r r r r r &.U U U U q.M M M M M M M M M M M M M r.(               s.t.i., ",
"              1 = = = = f.r r r r r &.U U U U U U U U U U U U U U U U U U u.                  v.< Q ",
"              i = = = = o w.r r r r &.U U U U U U U U U U U U U U U U U U u.                  v.< Q ",
"              ( 1 = = = = x.y.r r r &.U U U U U U U U U U U U U U U U U U u.                ' 7 z.! ",
"                p.= = = = = A.B.r r r C.C.C.C.C.C.C.C.C.C.D.E.F F.F.F.F.F.,               G.1.H.2.  ",
"                R I.f.= = = = Y J.K.L.r r r r r r M.M.N.O.P.Q.R.! ! ! ! ! ! ! ! ! ! ! S.7 3...T.    ",
"                    { U.= = = = = = V.W.W.W.W.W.X.@ @ @ Y.< < < < < < < < < < < < < < < < Z  .      ",
"                      b.$ $ `  + + + + + + +.+$ m.      { ++++++++++++++++++++++++++++++++~         ",
"                                                                                                    ",
"                                                                                                    ",
"                                                                                                    ",
"                                                                                                    ",
"                                                                                                    ",
"                                                                                                    ",
"                                                                                                    ",
"                                                                                                    ",
"                                                                                                    ",
"                                                                                                    "};
