/* XPM */
static const char * enixs32[] = {
"32 29 151 2",
"  	c None",
". 	c #FFFFFF",
"+ 	c #E8F0F9",
"@ 	c #E3EDF8",
"# 	c #C2D7EF",
"$ 	c #9FC1E6",
"% 	c #C4D8F0",
"& 	c #EFF4FB",
"* 	c #DAE6F5",
"= 	c #D9E5F5",
"- 	c #E2EBF7",
"; 	c #F4F8FC",
"> 	c #89B2E0",
", 	c #7AA9DC",
"' 	c #5993D4",
") 	c #528FD2",
"! 	c #629AD6",
"~ 	c #8AB3E1",
"{ 	c #F5F9FD",
"] 	c #F2F6FB",
"^ 	c #C4D7EF",
"/ 	c #9CBBE4",
"( 	c #AFC8E9",
"_ 	c #B1C9EA",
": 	c #B0C8EA",
"< 	c #A2C0E6",
"[ 	c #81ADDE",
"} 	c #5490D3",
"| 	c #5E97D5",
"1 	c #6EA1D9",
"2 	c #689ED8",
"3 	c #7BAADD",
"4 	c #FEFFFF",
"5 	c #CBDBF1",
"6 	c #A3C0E6",
"7 	c #D3E1F3",
"8 	c #ECF2FA",
"9 	c #FEFEFF",
"0 	c #D6E4F4",
"a 	c #73A4DB",
"b 	c #5591D3",
"c 	c #5691D3",
"d 	c #6B9FD8",
"e 	c #ACCBEA",
"f 	c #CCE0F2",
"g 	c #DBEAF6",
"h 	c #D6E7F5",
"i 	c #C0D8EF",
"j 	c #699FD8",
"k 	c #D1E1F3",
"l 	c #E9F0F9",
"m 	c #9EBCE5",
"n 	c #F3F6FC",
"o 	c #EEF4FA",
"p 	c #9BBEE5",
"q 	c #639AD6",
"r 	c #86B1E0",
"s 	c #D9E8F5",
"t 	c #95BCE4",
"u 	c #85B0DF",
"v 	c #CADBF1",
"w 	c #A0BDE5",
"x 	c #F8FBFD",
"y 	c #96BBE4",
"z 	c #538FD2",
"A 	c #6BA0D9",
"B 	c #2440BA",
"C 	c #2139B8",
"D 	c #455BC4",
"E 	c #D1E3F3",
"F 	c #BED5EE",
"G 	c #F8FAFD",
"H 	c #AAC4E8",
"I 	c #EAF1F9",
"J 	c #87B1E0",
"K 	c #8FB8E2",
"L 	c #152EB4",
"M 	c #001AAD",
"N 	c #2B43BB",
"O 	c #D5E6F4",
"P 	c #D8E6F5",
"Q 	c #DCE7F6",
"R 	c #FCFDFE",
"S 	c #A0C2E6",
"T 	c #90B8E2",
"U 	c #D9E9F5",
"V 	c #98ABE0",
"W 	c #C3D4EE",
"X 	c #C8D8F0",
"Y 	c #C9DAF0",
"Z 	c #A2BFE6",
"` 	c #B3CEEB",
" .	c #7CABDD",
"..	c #3148BD",
"+.	c #3E55C2",
"@.	c #D0DFF2",
"#.	c #DEECF7",
"$.	c #C8D9F0",
"%.	c #A6C2E7",
"&.	c #EAF0F9",
"*.	c #E6EEF8",
"=.	c #B5CCEB",
"-.	c #689CD8",
";.	c #BDD6EE",
">.	c #1932B5",
",.	c #CDDDF1",
"'.	c #F3F8FC",
").	c #A7C2E7",
"!.	c #EBF2FA",
"~.	c #5A94D4",
"{.	c #ABBCE6",
"].	c #DEEBF7",
"^.	c #EEF5FB",
"/.	c #B6CDEB",
"(.	c #F7F9FD",
"_.	c #D3E2F3",
":.	c #5491D3",
"<.	c #B6D2EC",
"[.	c #051EAF",
"}.	c #0620AF",
"|.	c #374BBF",
"1.	c #C7D8F0",
"2.	c #C3D6EF",
"3.	c #75A6DB",
"4.	c #DAEAF6",
"5.	c #1831B5",
"6.	c #031DAE",
"7.	c #3549BE",
"8.	c #B7CDEC",
"9.	c #D2E0F3",
"0.	c #B7D1EC",
"a.	c #5C95D5",
"b.	c #80AEDE",
"c.	c #BED7EE",
"d.	c #CDE1F2",
"e.	c #E3ECF8",
"f.	c #A5C1E7",
"g.	c #79A8DC",
"h.	c #5B95D4",
"i.	c #5490D2",
"j.	c #78A8DC",
"k.	c #9EC1E6",
"l.	c #A3C5E7",
"m.	c #C2D9EF",
"n.	c #B5D0EC",
"o.	c #ADCAEA",
"p.	c #A5C2E7",
"q.	c #ACC6E9",
"r.	c #D5E2F4",
"s.	c #C5D9F0",
"t.	c #E5EEF8",
"                                                                ",
"                                                                ",
"                                                                ",
"                                                                ",
"                                                                ",
"                                                                ",
"                                                                ",
"                                  + @ # $ % @ @ &               ",
"              * = -         ; > , ' ) ) ) ) ) ) ! ~ {           ",
"    ] ^ / ( _ ( ( : _ _ < [ } ) ) | 1 1 1 1 1 2 ) ) 3           ",
"4 5 6 7 8 9       9 0 a b ) c d e f g g g g g h i j b k         ",
"l m n           o p ) ) q r s g g g g g g g g g g g t u         ",
"v w           x y ) z A B C C C C C C C C C C D g g E F         ",
"G H I         J ) ) K g L M M M M M M M M M M N g g O P         ",
"  ] m Q   R S ) ) T U g L M M V W W W W W W W X g g s _ ]       ",
"  9 Y Z 7 ` ) )  .g g g L M M ..+.+.+.+.+.@.g g g #.{ $.%.&.    ",
"      *.=.-.) ) ;.g g g L M M >.C C C C C ,.g g g '.    & ).@.  ",
"        !.~.) ) i g g g L M M {.g g g g g g g ].^.        l /.(.",
"        _.:.) ) <.g g g L M M [.}.}.}.}.}.}.}.|.            1.2.",
"          , ) ) 3.4.g g 5.6.6.6.6.6.6.6.6.6.6.7.          9 8.9.",
"          0.a.) ) b.c.g g g g g g d.i #               G e.f.^   ",
"            I g.h.) i.j.k.k.l.m.n.o.p.Z _ _ _ _ _ _ _ q.f.r.G   ",
"                9 s.s.s.s.s.t.                                  ",
"                                                                ",
"                                                                ",
"                                                                ",
"                                                                ",
"                                                                ",
"                                                                "};
