/* XPM */
static const char * login[]={
"42 41 72 2",
".M c #1c7624",
".w c #b4d6b4",
".B c #246a2c",
".N c #2c6a2c",
".J c #345e34",
".y c #040204",
"#f c #c4bec4",
"#e c #f4f2f4",
".P c #0c0204",
".2 c #040a0c",
".F c #c4c6cc",
".1 c #140204",
"#b c #0c0a0c",
".7 c #fcfafc",
".V c #ccc6cc",
".t c #e4bec4",
".E c #a4d6a4",
".a c #f4b6bc",
".K c #1c7224",
".I c #bcc6bc",
".r c #d4b6ac",
".j c #ac1a2c",
".6 c #ecf6fc",
".L c #046a0c",
".G c #04060c",
".i c #f4a2ac",
"## c #0c060c",
"#. c #fcf6fc",
".l c #bc0e34",
".b c #fca2ac",
".X c #a4e6a4",
".Y c #140e14",
".p c #ecbac4",
".o c #c4163c",
".A c #acc6ac",
".C c #1c6e24",
".u c #acceb4",
".U c #848684",
".Z c #000000",
".x c #040e04",
".v c #345e3c",
".n c #a4263c",
".q c #c4d2cc",
".H c #0c020c",
".d c #f4bab4",
".T c #a4e2a4",
".g c #b42e44",
".R c #14761c",
".c c #fcaebc",
".k c #d40a34",
".5 c #e4f2ec",
".0 c #848a8c",
".h c #dcaeac",
".f c #ac122c",
".8 c #040a04",
"#a c #f4faf4",
".e c #9c363c",
"#c c #fcfaf4",
".s c #e4b6b4",
".W c #9cd69c",
".m c #ecb6b4",
".S c #146a14",
".Q c #acd2ac",
".# c None",
".D c #1c6624",
".O c #bccebc",
".z c #040604",
".9 c #f4f6f4",
"Qt c #c4c2c4",
"#d c #fcf6f4",
".3 c #f4fefc",
".4 c #fcfefc",
"Qt.#.#.#.#.#.#.#.#.#.#.#.#.#.#.#.#.#.#.#.#.#.#.#.#.#.#.#.#.#.#.#.#.#.#.#.#.#.#.#.#.#",
".#.#.#.#.#.#.#.#.#.#.#.#.#.#.#.#.#.#.#.#.#.#.#.#.#.#.#.#.#.#.#.#.#.#.#.#.#.#.#.#.#.#",
".#.#.#.#.#.#.#.#.#.#.#.#.#.#.#.#.#.#.#.#.#.#.#.#.#.#.#.#.#.#.#.#.#.#.#.#.#.#.#.#.#.#",
".#.#.#.#.#.#.#.#.#.#.#.#.#.#.#.#.#.#.#.#.#.#.#.#.#.#.#.#.#.#.#.#.#.#.#.#.#.#.#.#.#.#",
".#.#.#.#.#.#.#.#.#.#.#.#.#.#.a.b.c.#.#.#.#.#.#.#.#.#.#.#.#.#.#.#.#.#.#.#.#.#.#.#.#.#",
".#.#.#.#.#.#.#.#.#.#.#.#.#.d.e.f.g.h.#.#.#.#.#.#.#.#.#.#.#.#.#.#.#.#.#.#.#.#.#.#.#.#",
".#.#.#.#.#.#.#.#.#.#.#.#.#.i.j.k.l.m.#.#.#.#.#.#.#.#.#.#.#.#.#.#.#.#.#.#.#.#.#.#.#.#",
".#.#.#.#.#.#.#.#.#.#.#.#.#.a.n.o.f.p.#.#.#.#.#.#.#.#.#.#.#.#.#.#.#.#.#.#.#.#.#.#.#.#",
".#.#.#.#.#.#.q.#.#.#.#.#.#.#.r.s.t.#.#.#.#.#.#.#.#.#.#.#.#.#.#.#.#.#.#.#.#.#.#.#.#.#",
".#.#.#.#.#.u.v.w.#.#.#.#.#.#.x.y.z.z.#.#.#.#.#.#.#.#.#.#.#.#.#.#.#.#.#.#.#.#.#.#.#.#",
".#.#.#.#.A.B.C.D.E.#.#.#.y.y.F.F.F.F.G.H.#.#.#.#.#.#.#.#.#.#.#.#.#.#.#.#.#.#.#.#.#.#",
".#.#.#.I.J.K.L.M.N.O.#.H.F.F.F.y.y.y.y.y.P.#.#.#.#.#.#.#.#.#.#.#.#.#.#.#.#.#.#.#.#.#",
".#.#.#.#.Q.C.R.S.T.#.y.F.F.F.P.P.U.U.U.y.y.y.#.#.#.#.#.#.#.#Qt.V.V.#.#.#.#.#.#.#.#.#",
".#.#.#.#.#.W.B.X.#.y.P.F.F.y.U.U.U.U.U.U.U.y.Y.#.#.#.#.Z.Z.P.y.#.#.#.#.#.#.#.#.#.#.#",
".#.#.#.#.#.#.w.#.#.y.F.F.H.U.U.U.U.U.U.U.U.U.y.#.#.#.z.y.y.y.U.y.y.#.#.#.#.#.#.#.#.#",
".#.#.#.#.#.#.#.#.#.P.F.F.y.U.U.U.0.y.1.P.1.U.y.#.y.2.3.3.3.4.y.U.U.y.#.#.#.#.#.#.#.#",
".#.#.#.#.#.#.#.#.y.F.F.F.y.U.U.U.y.x.F.F.y.P.#.#.z.5.3.6.3.4.7.y.U.y.#.#.#.#.#.#.#.#",
".#.#.#.#.#.#.#.#.H.F.F.y.U.U.U.U.2.5.z.z.F.F.P.8.3.4.3.4.4.7.4.y.U.U.y.#.#.#.#.#.#.#",
".#.#.#.#.#.#.#.#.y.F.F.G.U.U.U.U.y.3.3.3.y.1.F.y.3.9.4#.#..7#..7.y.U##.#.#.#.#.#.#.#",
".#.#.#.#.#.#.#.#.y.F.F.y.U.U.U.U.z#a.3.4.4#..P.y.4.4.7.7#.#..4.4.7.y.U#b.#.#.#.#.#.#",
".#.#.#.#.#.#.#.#.y.F.F.y.U.U.U.U.y.4.4#c.4.4.7.4.4.4.7.4.4.4#..4.4.y.U.y.#.#.#.#.#.#",
".#.#.#.#.#.#.#.#.y.F.F.y.U.U.U.U.y.7.4#d.7.4#e.4.4#e.4.4.7.7.4.4.4.y.U.y.#.#.#.#.#.#",
".#.#.#.#.#.#.#.#.y.F.F.y.U.U.U.U.y.4.4.4.4#..4.4#d.4#d.7.y#b.9.7.7.y.U#b.#.#.#.#.#.#",
".#.#.#.#.#.#.#.#.#.y.F.F.y.U.U.U.y#..4.4#e.4#d.4.4.4.4.y.y.##b#..4.z.U.y.#.#.#.#.#.#",
".#.#.#.#.#.#.#.#.#.y.F.F.y.U.U.U.y.y.7.7.4.4.7.4.4.7.4.y.y.#.y.4#..y.U##.#.#.#.#.#.#",
".#.#.#.#.#.#.#.#.#.y.y.F.y.U.U.U.U.U.z.y.4.4.7#..4.4#c.y.y.y.y.4#..y.U.y.#.#.#.#.#.#",
".#.#.#.#.#.#.#.#.#.##b.F.F.y.U.U.U.U.U.U.y.y.4.7#d.4.7.4.y.y.4.4#..y.U.y.#Qt.#.#.#.#",
".#.#.#.#.#.#.#.#.#.#.#.y.F.F.y.z.U.U.U.y.y.#.y.4.4#..4.4.7.4#e.4.7.y.U.y.#Qt.#.#.#.#",
".#.#.#.#.#.#.#.#.##f.#.#.y.y.F.y.y.y.G.y.#.#.y.4.4.4.7.7.4.7.4.4.7.y.U.z.#.#.#.#.#.#",
".#.#.#.#.#.#.#.#.#.#.#.#.#.#.y.y.y.y.#.#.#.#.y.7.4.4.7.4.4.4.7.7.7.y.U.y.#.#.#.#.#.#",
".#.#.#.#.#.#.#.#.#.#.#.#.#.#.#.#.#.#.#.#.#.#.#.y#..7#..4#..4.7.7.4.y.U.Y.#.#.#.#.#.#",
".#.#.#.#.#.#.#.#.#.#.#.#.#.#.#.#.#.#.#.#.#.#.#.y.4.4.4.4.4.4.7.4.y.y.y.#.#.#.#.#.#.#",
".#.#.#.#.#.#.#.#.#.#.#.#.#.#.#.#.#.#.#.#.#.#.#.#.y.7.4.4#..4.4.7.y.U.y.#.#.#.#.#.#.#",
".#.#.#.#.#.#.#.#.#.#.#.#.#.#.#.#.#.#.#.#.#.#.#.#.y.4.7.7.4.7.4.y.y.y.#.#.#.#.#.#.#.#",
".#.#.#.#.#.#.#.#.#.##f.#.#.#.#.#.#.#.#.#.#.#.#.#.#.y.4.7#..4.y.y.y.#.#.#.#.#.#.#.#.#",
".#.#.#.#.#.#.#.#.#.#.#.#.#.#.#.#.#.#.#.#.#.#.#.#.#.#.y.G.y.y.y.y.#.#.#.#.#.#.#.#.#.#",
".#.#.#.#.#.#.#.#.#.#.#.#.#.#.#.#.#.#.#.#.#.#.#.#.#.#.#.#.#.#.#.#.#.#.#.#.#.#.#.#.#.#",
".#.#.#.#.#.#.#.#.#.#.#.#.#.#.#.#.#.#.#.#.#.#.#.#.#.#.#.#.#.#.#.#.#.#.#.#.#.#.#.#.#.#",
".#.#.#.#.#.#.#.#.#.#.#.#.#.#.#.#.#.#.#.#.#.#.#.#.#.#.#.#.#.#.#.#.#.#.#.#.#.#.#.##f.#",
".#.#.#.#.#.#.#.#.#.#.#.#.#.#.#.#.#.#.#.#.#.#.#.#.#.#.#.#.#.#.#.#.#.#.#.#.#.#.#.#.#.#",
".#.#.#.#.#.#.#.#.#.#.#.#.#.#.#.#.#.#.#.#.#.#.#.#.#.#.#.#.#.#.#.#.#.#.#.#.#.#.#.#.#.#"};
