/* XPM */
static const char * contactimport[] = {
"16 16 4 1",
" 	c None",
".	c #0C00FF",
"+	c #000000",
"@	c #FFFFFF",
"                ",
"       ....     ",
"   . .... ..    ",
"   ....     .   ",
"   ...          ",
"   ....         ",
"         +++++++",
" ++++    +@@@@@+",
" ++++    +@@@@@+",
" ++++    +@@@@@+",
"  ++     +@@@@@+",
"++++++   +@@@@@+",
"++++++   +@@@@@+",
"++++++   +@@@@@+",
"++++++   +++++++",
"                "};
