/* XPM */
static const char * editcopy[] = {
"18 18 62 1",
" 	c None",
".	c #585858",
"+	c #DEDEDE",
"@	c #6D6D6D",
"#	c #424242",
"$	c #FFFFFF",
"%	c #707070",
"&	c #FAF7F5",
"*	c #F9F6F2",
"=	c #F8F0E5",
"-	c #E0DEDD",
";	c #BCB4AD",
">	c #000000",
",	c #F4E9DB",
"'	c #F1E3CE",
")	c #BBAC94",
"!	c #AAAAAA",
"~	c #EFDCC2",
"{	c #BCA687",
"]	c #C3C3C3",
"^	c #F9F9F9",
"/	c #ECD6B9",
"(	c #BDA280",
"_	c #E9D0AC",
":	c #BDA07A",
"<	c #F3F3F3",
"[	c #E0E0E0",
"}	c #B6B6B6",
"|	c #E6C9A3",
"1	c #BF9F73",
"2	c #BEBEBE",
"3	c #EDEDED",
"4	c #E7E7E7",
"5	c #A9A9A9",
"6	c #C5BEB4",
"7	c #C3B9AA",
"8	c #C2B59F",
"9	c #C1AE96",
"0	c #C1AA8A",
"a	c #BFA682",
"b	c #BF9F76",
"c	c #BE9B6D",
"d	c #BABABA",
"e	c #E1E1E1",
"f	c #A3A3A3",
"g	c #303030",
"h	c #B5B5B5",
"i	c #DCDCDC",
"j	c #A0A0A0",
"k	c #7C7C7C",
"l	c #B1B1B1",
"m	c #D6D6D6",
"n	c #9D9D9D",
"o	c #D0D0D0",
"p	c #9A9A9A",
"q	c #B8B8B8",
"r	c #B2B2B2",
"s	c #ADADAD",
"t	c #A7A7A7",
"u	c #A2A2A2",
"v	c #9C9C9C",
"w	c #979797",
".......           ",
".+++++@#          ",
".+$$$$%&#         ",
".+$$$$%%##        ",
".+$$$*=-;>...     ",
".+$$*=,')>!+@#    ",
".+$*=,'~{>]$%^#   ",
".+*=,'~/(>]$%%##  ",
".+=,'~/_:>]^<[}>  ",
".+,'~/_|1>2<345>  ",
".67890abc>d34ef>  ",
".>>>>>>>>gh4eij>  ",
"  kkkk.!dhleimn>  ",
"      .+34eimop>  ",
"      .2qrstuvw>  ",
"      .>>>>>>>>g  ",
"                  ",
"                  "};
