/* XPM */
static const char * group_icon[] = {
"24 24 356 2",
"  	c None",
". 	c #FCFDFD",
"+ 	c #D0C5C8",
"@ 	c #AD8691",
"# 	c #A87F8A",
"$ 	c #D2C3C9",
"% 	c #FEFEFE",
"& 	c #FCFBFC",
"* 	c #E4E5E7",
"= 	c #E1E1E3",
"- 	c #F7F4F5",
"; 	c #B796A0",
"> 	c #DEABB7",
", 	c #E2ADB8",
"' 	c #D3ACB9",
") 	c #F6F5F6",
"! 	c #AAA5A9",
"~ 	c #7A6777",
"{ 	c #776576",
"] 	c #B8B5B8",
"^ 	c #FEFDFE",
"/ 	c #E3E1E5",
"( 	c #AFA9B8",
"_ 	c #AFA0B0",
": 	c #C4929E",
"< 	c #946A7D",
"[ 	c #AA7D8C",
"} 	c #CAAFB8",
"| 	c #F1EDEF",
"1 	c #694C5B",
"2 	c #C08D9A",
"3 	c #B47E8A",
"4 	c #83747F",
"5 	c #FEFFFF",
"6 	c #D1CED5",
"7 	c #685C76",
"8 	c #645474",
"9 	c #886D87",
"0 	c #DEA2AF",
"a 	c #D48E9E",
"b 	c #AE7386",
"c 	c #E4E0E2",
"d 	c #B9AEB3",
"e 	c #916278",
"f 	c #9B6B7E",
"g 	c #91677B",
"h 	c #FDFEFD",
"i 	c #A59EAB",
"j 	c #4C4061",
"k 	c #B7AAB8",
"l 	c #DDBDC6",
"m 	c #D28D96",
"n 	c #D58698",
"o 	c #C68593",
"p 	c #C1BAC1",
"q 	c #FCFEFC",
"r 	c #FFFFFD",
"s 	c #FFFEFC",
"t 	c #AE9DA5",
"u 	c #AA747E",
"v 	c #BF8391",
"w 	c #805769",
"x 	c #98868D",
"y 	c #FEFEFF",
"z 	c #F9F5F6",
"A 	c #DDC3CD",
"B 	c #695A75",
"C 	c #C4A4B5",
"D 	c #E1BBC3",
"E 	c #BF747E",
"F 	c #BC7888",
"G 	c #DDA8B6",
"H 	c #5C475F",
"I 	c #DFC7D2",
"J 	c #F7F6FA",
"K 	c #CDC2D7",
"L 	c #C899A0",
"M 	c #9C676B",
"N 	c #855A66",
"O 	c #371D30",
"P 	c #AE9EA5",
"Q 	c #FDFCFD",
"R 	c #EDC1C8",
"S 	c #DEC0CA",
"T 	c #615870",
"U 	c #BA96A5",
"V 	c #DE8B96",
"W 	c #CE8999",
"X 	c #D6ACB6",
"Y 	c #E9CAD5",
"Z 	c #746071",
"` 	c #BAB0C3",
" .	c #C3BDDA",
"..	c #887CB4",
"+.	c #A57B92",
"@.	c #A06C6F",
"#.	c #8B5B67",
"$.	c #60475B",
"%.	c #DAD3D8",
"&.	c #FEFFFC",
"*.	c #F1EBF0",
"=.	c #AF8697",
"-.	c #A98B9F",
";.	c #463C56",
">.	c #BFB1C4",
",.	c #DAC2D6",
"'.	c #D8BAD6",
").	c #D8848F",
"!.	c #CD505C",
"~.	c #8D4F65",
"{.	c #9B87AB",
"].	c #6E619E",
"^.	c #665D9F",
"/.	c #795D88",
"(.	c #956166",
"_.	c #755160",
":.	c #765C72",
"<.	c #B8AFB7",
"[.	c #FBFBF9",
"}.	c #8E6F7E",
"|.	c #895E70",
"1.	c #875F6B",
"2.	c #604052",
"3.	c #D3BCD0",
"4.	c #D58899",
"5.	c #D8C1D6",
"6.	c #AC6376",
"7.	c #55314A",
"8.	c #473556",
"9.	c #765E7D",
"0.	c #714C76",
"a.	c #524481",
"b.	c #584F88",
"c.	c #6C485B",
"d.	c #AD8086",
"e.	c #CE9A9E",
"f.	c #6F515D",
"g.	c #C5BDC3",
"h.	c #B29EA9",
"i.	c #915F6B",
"j.	c #D39CA0",
"k.	c #B07A85",
"l.	c #6C4452",
"m.	c #BDA4C1",
"n.	c #C3889F",
"o.	c #D2BEDB",
"p.	c #7D6E86",
"q.	c #634861",
"r.	c #835B77",
"s.	c #764F66",
"t.	c #74444F",
"u.	c #493565",
"v.	c #75699A",
"w.	c #624257",
"x.	c #907084",
"y.	c #B58B9B",
"z.	c #704858",
"A.	c #877A88",
"B.	c #B29EA5",
"C.	c #BD8186",
"D.	c #C5888B",
"E.	c #B97C80",
"F.	c #6C424C",
"G.	c #997F9A",
"H.	c #BAABCC",
"I.	c #C6B4D4",
"J.	c #916A7C",
"K.	c #875C6A",
"L.	c #8E6073",
"M.	c #865769",
"N.	c #653C4E",
"O.	c #746386",
"P.	c #E6E1EE",
"Q.	c #D1ACB9",
"R.	c #D3979F",
"S.	c #B48190",
"T.	c #5D394A",
"U.	c #948593",
"V.	c #876A7E",
"W.	c #C88A91",
"X.	c #CA8F97",
"Y.	c #A06F76",
"Z.	c #573540",
"`.	c #997695",
" +	c #AE94B7",
".+	c #BE8FA8",
"++	c #996D7E",
"@+	c #9A6573",
"#+	c #996472",
"$+	c #935F6D",
"%+	c #5A3046",
"&+	c #92829F",
"*+	c #E5E3EF",
"=+	c #D6B7C1",
"-+	c #CC8C94",
";+	c #B17A82",
">+	c #564254",
",+	c #8A7F8C",
"'+	c #3E2544",
")+	c #7A5162",
"!+	c #8A626E",
"~+	c #432337",
"{+	c #4A2C46",
"]+	c #9F83A3",
"^+	c #A47A94",
"/+	c #D2A8B2",
"(+	c #8A687A",
"_+	c #885A6B",
":+	c #916170",
"<+	c #9C7786",
"[+	c #563442",
"}+	c #A496A8",
"|+	c #E9E3F5",
"1+	c #DDD1DA",
"2+	c #C8A0A5",
"3+	c #C2A0A5",
"4+	c #9E97A0",
"5+	c #A397A0",
"6+	c #351D3C",
"7+	c #361E3F",
"8+	c #2A1033",
"9+	c #331633",
"0+	c #7F5F7B",
"a+	c #8F5E73",
"b+	c #CDB8C3",
"c+	c #ECE9F3",
"d+	c #B5A2B0",
"e+	c #7F5869",
"f+	c #966F82",
"g+	c #C6B5C2",
"h+	c #785D64",
"i+	c #D7D1DC",
"j+	c #E9E5F4",
"k+	c #E3D9E7",
"l+	c #D5B3BC",
"m+	c #8B7886",
"n+	c #7C7387",
"o+	c #71687A",
"p+	c #362141",
"q+	c #281338",
"r+	c #14022C",
"s+	c #644864",
"t+	c #B2A4BA",
"u+	c #EDEBF3",
"v+	c #EBEAF3",
"w+	c #E1DDE9",
"x+	c #CABCCC",
"y+	c #D0C0D1",
"z+	c #D8D2DF",
"A+	c #7B5F6C",
"B+	c #D8CEE0",
"C+	c #E7E5F1",
"D+	c #D6C4CC",
"E+	c #C3858E",
"F+	c #B48F9E",
"G+	c #E1DCE9",
"H+	c #D2D0D8",
"I+	c #25163A",
"J+	c #1C0D36",
"K+	c #180531",
"L+	c #240D30",
"M+	c #5F3F52",
"N+	c #E8E7F0",
"O+	c #EFEFF7",
"P+	c #E9E7F1",
"Q+	c #E6E3F0",
"R+	c #E2E0ED",
"S+	c #E0DDEB",
"T+	c #D7D1E0",
"U+	c #6E576A",
"V+	c #B0A4C0",
"W+	c #DDDAEB",
"X+	c #E1D6E1",
"Y+	c #AF7B84",
"Z+	c #896D7C",
"`+	c #DAD5E8",
" @	c #DAD6E3",
".@	c #28193F",
"+@	c #21113A",
"@@	c #1C0734",
"#@	c #210E31",
"$@	c #6B5768",
"%@	c #ECEBF3",
"&@	c #ECEAF6",
"*@	c #E7E5F2",
"=@	c #E6E4F1",
"-@	c #E6E3F1",
";@	c #E2DDEB",
">@	c #D6CFDE",
",@	c #76687E",
"'@	c #ABA1BC",
")@	c #C9C2D7",
"!@	c #D8D0E5",
"~@	c #B18D9D",
"{@	c #925A61",
"]@	c #AE828C",
"^@	c #8D6B73",
"/@	c #281840",
"(@	c #23143C",
"_@	c #1F1038",
":@	c #291434",
"<@	c #7D707E",
"[@	c #E8E3EE",
"}@	c #E3DFED",
"|@	c #E1DDEC",
"1@	c #E3E0EE",
"2@	c #E0DAE8",
"3@	c #D6CFDF",
"4@	c #877A91",
"5@	c #8D839E",
"6@	c #C0B8D4",
"7@	c #B9B1CE",
"8@	c #9284A2",
"9@	c #7A4852",
"0@	c #955357",
"a@	c #543138",
"b@	c #2B1D40",
"c@	c #2E1E42",
"d@	c #301C3C",
"e@	c #291638",
"f@	c #7D7285",
"g@	c #E5E1EE",
"h@	c #DCD7E9",
"i@	c #D3C9DD",
"j@	c #D5CFDE",
"k@	c #DDD8E5",
"l@	c #DBD4E4",
"m@	c #CEC6DC",
"n@	c #9C94AB",
"o@	c #514962",
"p@	c #6C6580",
"q@	c #9189A6",
"r@	c #574F6D",
"s@	c #26163C",
"t@	c #553245",
"u@	c #251630",
"v@	c #322545",
"w@	c #332747",
"x@	c #2E2041",
"y@	c #1B0C36",
"z@	c #7E7589",
"A@	c #E4E0ED",
"B@	c #DCD7E8",
"C@	c #C7BCD2",
"D@	c #DBD4E3",
"E@	c #DDD7E5",
"F@	c #DAD4E4",
"G@	c #C6BED4",
"H@	c #90879E",
"I@	c #453C56",
"J@	c #463A57",
"K@	c #443754",
"L@	c #271E38",
"M@	c #0C063B",
"N@	c #2B224F",
"O@	c #7E6C94",
"                                                ",
"                                                ",
"                  + @ # $                       ",
"                  ; > , '         ! ~ { ]       ",
"            / ( _ : < [ }         1 2 3 4       ",
"          6 7 8 9 0 a b c       d e f g 4       ",
"          i j k l m n o p       t u v w x       ",
"          A B C D E F G H I J K L M N O P       ",
"        R S T U V W X Y Z `  ...+.@.#.$.%.      ",
"        =.-.;.>.,.'.).!.~.{.].^./.(._.:.<.      ",
"      }.|.1.2.3.4.5.6.7.8.9.0.a.b.c.d.e.f.g.    ",
"    h.i.j.k.l.m.n.o.p.q.r.s.t.u.v.w.x.y.z.A.    ",
"    B.C.D.E.F.G.H.I.J.K.L.M.N.O.P.Q.R.S.T.U.    ",
"    V.W.X.Y.Z.`. +.+++@+#+$+%+&+*+=+-+;+>+,+    ",
"    '+)+!+~+{+]+^+/+(+_+:+<+[+}+|+1+2+3+4+5+    ",
"    6+7+8+9+0+a+b+c+d+e+f+g+h+i+j+k+l+m+n+o+    ",
"    p+q+r+8+s+t+u+v+w+x+y+z+A+B+C+D+E+F+G+H+    ",
"    I+J+K+L+M+N+O+P+Q+R+S+T+U+V+W+X+Y+Z+`+ @    ",
"    .@+@@@#@$@%@&@*@=@-@;@>@,@'@)@!@~@{@]@^@    ",
"    /@(@_@:@<@[@}@|@R+1@2@3@4@5@6@7@8@9@0@a@    ",
"    b@c@d@e@f@g@h@i@j@k@l@m@n@o@p@q@r@s@t@u@    ",
"    v@w@x@y@z@A@B@C@D@E@F@G@H@I@J@K@L@M@N@O@    ",
"                                                ",
"                                                "};
