/* XPM */
static const char * handy_icon[] = {
"16 16 41 1",
" 	c None",
".	c #717171",
"+	c #8D959D",
"@	c #101818",
"#	c #506169",
"$	c #405059",
"%	c #85AAB6",
"&	c #597171",
"*	c #181818",
"=	c #485961",
"-	c #618185",
";	c #283030",
">	c #080C10",
",	c #405050",
"'	c #69898D",
")	c #182020",
"!	c #303C38",
"~	c #202830",
"{	c #71919D",
"]	c #617985",
"^	c #616961",
"/	c #384848",
"(	c #202020",
"_	c #8D898D",
":	c #596971",
"<	c #384040",
"[	c #A5A1A5",
"}	c #506969",
"|	c #79A1A5",
"1	c #404C48",
"2	c #85A5AE",
"3	c #404848",
"4	c #485959",
"5	c #AEDAE6",
"6	c #617979",
"7	c #282828",
"8	c #506161",
"9	c #304040",
"0	c #798185",
"a	c #304048",
"b	c #303838",
"                ",
"                ",
"         ..+   @",
"        #$%&  * ",
"       #=--- ;  ",
"      >,,'--)   ",
"      )!~{-];   ",
"     ^-/]--'(   ",
"    _:<---{$    ",
"   [-/}--|1     ",
"  _//$--23_     ",
" 4;2]--+#^      ",
"-55---6&7       ",
" --'-8]@        ",
" [==&-9         ",
"  09ab          "};
