/* XPM */
static const char * headquarter_icon[] = {
"16 16 98 2",
"  	c None",
". 	c #4E4943",
"+ 	c #040301",
"@ 	c #2A2C2E",
"# 	c #2E2B28",
"$ 	c #4D453B",
"% 	c #958A79",
"& 	c #CFB695",
"* 	c #151516",
"= 	c #5C564E",
"- 	c #6E5F4C",
"; 	c #C4AE92",
"> 	c #A89781",
", 	c #554938",
"' 	c #453E35",
") 	c #9D876B",
"! 	c #E2C9A7",
"~ 	c #36332F",
"{ 	c #526D8B",
"] 	c #717880",
"^ 	c #100E0C",
"/ 	c #868687",
"( 	c #797269",
"_ 	c #4D4336",
": 	c #5C82B0",
"< 	c #193C64",
"[ 	c #080A0F",
"} 	c #738599",
"| 	c #5B6F85",
"1 	c #2C3239",
"2 	c #394759",
"3 	c #4D77AA",
"4 	c #183A5F",
"5 	c #020407",
"6 	c #272421",
"7 	c #BBA990",
"8 	c #71624E",
"9 	c #6B7F98",
"0 	c #4573AC",
"a 	c #305E91",
"b 	c #396495",
"c 	c #436B97",
"d 	c #3C6694",
"e 	c #366498",
"f 	c #0B2541",
"g 	c #38393C",
"h 	c #7C7468",
"i 	c #C1A784",
"j 	c #191612",
"k 	c #3C4857",
"l 	c #285081",
"m 	c #153D6A",
"n 	c #14375E",
"o 	c #0F3158",
"p 	c #1D3652",
"q 	c #0E1D2E",
"r 	c #393938",
"s 	c #3E4144",
"t 	c #445E7A",
"u 	c #426389",
"v 	c #57595C",
"w 	c #060504",
"x 	c #232C35",
"y 	c #0C233C",
"z 	c #172D45",
"A 	c #2C383F",
"B 	c #BDB9B6",
"C 	c #66686A",
"D 	c #203C5B",
"E 	c #355A83",
"F 	c #1B395B",
"G 	c #17202A",
"H 	c #0B0B0B",
"I 	c #1A416D",
"J 	c #183E68",
"K 	c #425E75",
"L 	c #78828D",
"M 	c #BBB8B5",
"N 	c #000209",
"O 	c #020A12",
"P 	c #2F527A",
"Q 	c #204E83",
"R 	c #16385B",
"S 	c #8C9197",
"T 	c #DCDCDB",
"U 	c #0F0F0F",
"V 	c #000000",
"W 	c #323436",
"X 	c #67809E",
"Y 	c #325C8F",
"Z 	c #3C4F64",
"` 	c #95918D",
" .	c #151616",
"..	c #121313",
"+.	c #141516",
"@.	c #090C11",
"#.	c #1F1F20",
"$.	c #181818",
"                                ",
"                                ",
"                                ",
"                        . +     ",
"    @ # $             % &       ",
"  * = - ;             > ,       ",
"    ' ) ! ~         { ] ^       ",
"    / ( _         : < [         ",
"    } | 1     2 3 4 5   6 7 8   ",
"  9 0 a b c d e f     g h i j   ",
"  k l m n o p q r s t u v w     ",
"    x y z A B C D E F G H       ",
"      I J K L M N O             ",
"      P Q R S T U V             ",
"    W X Y Z `  ...              ",
"      +.@.#.$.V                 "};
