/* XPM */
static const char * helpcontext[] = {
"18 18 3 1",
" 	c None",
".	c #000080",
"+	c #000000",
"         ....+    ",
"        ......+   ",
"+      ..+   ..+  ",
"++     .+     .+  ",
"+++    ..+    .+  ",
"++++    ..   ..+  ",
"+++++       ..+   ",
"++++++     ..+    ",
"+++++++   ..+     ",
"++++++++  ..+     ",
"+++++      +      ",
"++ ++             ",
"+   ++    ..+     ",
"    ++    ..+     ",
"     ++           ",
"     ++           ",
"                  ",
"                  "};
