/* XPM */
static const char * homepage_icon[] = {
"18 18 116 2",
"  	c None",
". 	c #FFFFFF",
"+ 	c #234C80",
"@ 	c #264F81",
"# 	c #414141",
"$ 	c #070707",
"% 	c #594D34",
"& 	c #A87A2B",
"* 	c #FDFDFD",
"= 	c #3C3C3C",
"- 	c #050505",
"; 	c #3574AE",
"> 	c #21497B",
", 	c #0B3059",
"' 	c #CCCCCC",
") 	c #000000",
"! 	c #E9E9E9",
"~ 	c #0B0B0B",
"{ 	c #E8E8E8",
"] 	c #0D0D0D",
"^ 	c #729195",
"/ 	c #ADBA67",
"( 	c #3D6CB0",
"_ 	c #10499F",
": 	c #13365E",
"< 	c #424242",
"[ 	c #4F4F4F",
"} 	c #3D3D3D",
"| 	c #FEFEFE",
"1 	c #1758BA",
"2 	c #103D89",
"3 	c #133861",
"4 	c #E2E2E2",
"5 	c #090909",
"6 	c #E8D483",
"7 	c #525252",
"8 	c #0F43A1",
"9 	c #19324F",
"0 	c #666666",
"a 	c #060606",
"b 	c #3B3B3B",
"c 	c #5F543E",
"d 	c #EFCA74",
"e 	c #434343",
"f 	c #253F64",
"g 	c #1448A8",
"h 	c #213852",
"i 	c #2D2A18",
"j 	c #0F0F0F",
"k 	c #88A0AF",
"l 	c #6387A2",
"m 	c #877E69",
"n 	c #EBEBEB",
"o 	c #2062C4",
"p 	c #1348B7",
"q 	c #1D395B",
"r 	c #332F1B",
"s 	c #244C7E",
"t 	c #17335A",
"u 	c #80B7EE",
"v 	c #364834",
"w 	c #86AC86",
"x 	c #4189E4",
"y 	c #337CE2",
"z 	c #103F97",
"A 	c #232A3C",
"B 	c #28527F",
"C 	c #5798E2",
"D 	c #6EADED",
"E 	c #6C9EAD",
"F 	c #AFB663",
"G 	c #EEDEB6",
"H 	c #4C4C4C",
"I 	c #213B61",
"J 	c #143C7A",
"K 	c #1A2E49",
"L 	c #192631",
"M 	c #103258",
"N 	c #5399E9",
"O 	c #6FAEED",
"P 	c #4C9EEC",
"Q 	c #3496F2",
"R 	c #9E9B68",
"S 	c #B9A843",
"T 	c #18345B",
"U 	c #123D74",
"V 	c #1D3551",
"W 	c #143A6A",
"X 	c #175CAA",
"Y 	c #377ECF",
"Z 	c #397CD9",
"` 	c #1C6AD8",
" .	c #BF992F",
"..	c #9F9246",
"+.	c #7A6B3E",
"@.	c #685C32",
"#.	c #20324B",
"$.	c #202F48",
"%.	c #184874",
"&.	c #15559D",
"*.	c #2264AE",
"=.	c #10519D",
"-.	c #777245",
";.	c #7B7540",
">.	c #584C35",
",.	c #444E34",
"'.	c #292B2A",
").	c #143858",
"!.	c #12355D",
"~.	c #1B466D",
"{.	c #1E3E5B",
"].	c #393F30",
"^.	c #303422",
"/.	c #212C2F",
"(.	c #21271F",
"_.	c #262F1A",
"                                    ",
"                                    ",
". .         . . . + @               ",
". # $     % & * = - ; > ,           ",
". ' ) . ! ~ . { ] ^ / ( _ :         ",
"' * < . . [ . } . . . | 1 2 3       ",
"  . . . . . 4 5 6 ) 7 . ) 8 9       ",
"  ' . 0 a . b c d . . e f g h i     ",
"    . j k . j l m ) ) n o p q r     ",
"    s t u k v w . x y * ) z t A     ",
"    B C D D E F G . . H I J K L     ",
"      M N O P Q R S ) T U V )       ",
"      W X Y Z `  ...+.@.#.$.)       ",
"        %.&.*.=.-.;.>.,.'.)         ",
"          ).!.~.{.v ].^.)           ",
"              /.(._.)               ",
"                                    ",
"                                    "};
