/* XPM */
static const char * mail_icon[] = {
"16 16 9 1",
" 	c None",
".	c #000000",
"+	c #FFA858",
"@	c #FFFFFF",
"#	c #FFDCA8",
"$	c #C0C0C0",
"%	c #585858",
"&	c #800000",
"*	c #FF8000",
"       .....    ",
"    .. .+@##.   ",
"   .$@..++@##.  ",
"   .$@@@..+@##. ",
"  .@%@@@$.++@@@.",
"  .@%@$$@.&+#++.",
" .@@%$@@.+*&#++.",
" .@@%@@@.++*&&. ",
".$%%%@@.++++###.",
".@@$@@@.++&+#++.",
" .@$@@..++*&#++.",
" .@$@@. .++*&&. ",
"  .$@.   .++###.",
"  .$@.    .+#++.",
"   ..      .#++.",
"            ... "};
