/* XPM */
static const char * office_icon[] = {
"16 16 85 1",
" 	c None",
".	c #4A4A4A",
"+	c #323232",
"@	c #737373",
"#	c #585858",
"$	c #AFAFAF",
"%	c #666666",
"&	c #333333",
"*	c #434343",
"=	c #BBBBBB",
"-	c #5C5C5C",
";	c #1E1E1E",
">	c #5B5B5B",
",	c #5D5D5D",
"'	c #DCDCDC",
")	c #8B8B8B",
"!	c #2A2A2A",
"~	c #BFBFBF",
"{	c #1D1D1D",
"]	c #000000",
"^	c #3E3E3E",
"/	c #DFDFDF",
"(	c #6D6D6D",
"_	c #454545",
":	c #47463E",
"<	c #616161",
"[	c #3F3F3F",
"}	c #EAEAEA",
"|	c #FFFFFF",
"1	c #FDFDFD",
"2	c #F4F4F4",
"3	c #CCCCCC",
"4	c #A0A0A0",
"5	c #898989",
"6	c #808284",
"7	c #4C4C4C",
"8	c #FEFEFE",
"9	c #F8F8F8",
"0	c #A8A8A7",
"a	c #D6D6D6",
"b	c #B8B8B9",
"c	c #8A8A8A",
"d	c #7E7466",
"e	c #F8F1E6",
"f	c #F6EFE4",
"g	c #F2EAE0",
"h	c #ECE4DA",
"i	c #8D755F",
"j	c #9A775A",
"k	c #C4BEB6",
"l	c #514938",
"m	c #393939",
"n	c #8E8E8E",
"o	c #AAAAAA",
"p	c #919191",
"q	c #F4E0C6",
"r	c #F3E0C6",
"s	c #F2DFC5",
"t	c #A17B5D",
"u	c #AC7139",
"v	c #D8D8D8",
"w	c #232323",
"x	c #272727",
"y	c #545454",
"z	c #F1F1F1",
"A	c #979490",
"B	c #70654C",
"C	c #EED0A8",
"D	c #A27755",
"E	c #AD7239",
"F	c #282828",
"G	c #242424",
"H	c #A3A3A3",
"I	c #CBCBCB",
"J	c #BCBCBC",
"K	c #93908B",
"L	c #9A816B",
"M	c #A27D5E",
"N	c #2D2D2D",
"O	c #C8C8C8",
"P	c #E2E2E2",
"Q	c #252525",
"R	c #989898",
"S	c #2C2C2C",
"T	c #2B2B2B",
"        .+      ",
"        @#      ",
"        $%&.    ",
"       *=- ;.>  ",
"     ,.')>!  ;.>",
"    ,'>~$@{]  ^]",
"   ,')/(>_]:<[] ",
"  ,})|12/34567: ",
" ,')||89}'0ab~c:",
":})deeefghijkl=7",
"mno}pdqqrstulv>w",
" xycvzABCCDE=>F ",
"   GyHIJKBLM>F  ",
"     NynOP~>Q   ",
"       GyR>F    ",
"         ST     "};
