/* XPM */
static const char * viewcategory[] = {
"18 18 5 1",
" 	c None",
".	c #000000",
"+	c #F7A50C",
"@	c #E5C120",
"#	c #FFFF00",
"    ..............",
"    .++++++++++++.",
"    .++++++++++++.",
"  ..............+.",
"  .@@@@@@@@@@@@.+.",
"  .@@@@@@@@@@@@.+.",
"..............@.+.",
".############.@.+.",
".############.@.+.",
".############.@.+.",
".############.@.+.",
".############.@...",
".############.@.  ",
".############.@.  ",
".############...  ",
".############.    ",
".############.    ",
"..............    "};
