/* XPM */
static const char * viewcompany[] = {
"18 18 4 1",
" 	c None",
".	c #848181",
"+	c #000000",
"@	c #A5A0A0",
"     ....         ",
"   ....           ",
" ....             ",
"...               ",
"+++               ",
"+++               ",
"+++               ",
"+++               ",
"+++     ++      ++",
"+++   ++++    ++++",
"+++ ++++++  ++++++",
"++++++++++++++++++",
"++++++++++++++++++",
"++++@@+++@@+++@@++",
"++++@@+++@@+++@@++",
"++++@@+++@@+++@@++",
"++++++++++++++++++",
"++++++++++++++++++"};
