/* XPM */
static const char * viewalpha[] = {
"18 18 4 1",
" 	c None",
".	c #0000FF",
"+	c #FF0000",
"@	c #000000",
"              ... ",
"             .....",
"             .. ..",
"             ..   ",
"             .. ..",
"       ++++  .....",
"       +++++  ... ",
"       ++ ++      ",
"       +++++      ",
"       ++++       ",
"       ++ ++      ",
" @@@   +++++      ",
"@@@@@  ++++       ",
"@@ @@             ",
"@@@@@             ",
"@@@@@             ",
"@@ @@             ",
"@@ @@             "};
