/* XPM */
static const char * folder_newIcon[] = {
"16 16 86 1",
" 	c None",
".	c #FFFFFF",
"+	c #585858",
"@	c #FFFF85",
"#	c #000000",
"$	c #FFFF00",
"%	c #E5A566",
"&	c #FED39A",
"*	c #FEC585",
"=	c #C0C000",
"-	c #FDC587",
";	c #FEC282",
">	c #F8AC62",
",	c #C1C10A",
"'	c #FFFFC0",
")	c #FEC88A",
"!	c #4E331B",
"~	c #53504D",
"{	c #FFFFFF",
"]	c #C4864E",
"^	c #524F4C",
"/	c #F5F5F5",
"(	c #ECECEC",
"_	c #E4E4E4",
":	c #DCDCDC",
"<	c #B3B3B3",
"[	c #303030",
"}	c #4A3119",
"|	c #DBDBDB",
"1	c #DFDFDE",
"2	c #E8E8E7",
"3	c #E6E6E4",
"4	c #494948",
"5	c #B77D44",
"6	c #53514E",
"7	c #DADADA",
"8	c #DBDBDA",
"9	c #E1E1E0",
"0	c #DDDDDC",
"a	c #C1C1C0",
"b	c #A0A09F",
"c	c #493018",
"d	c #CDCDCD",
"e	c #CACAC9",
"f	c #D5D5D4",
"g	c #D2D2D0",
"h	c #CCCCCB",
"i	c #C2C2C1",
"j	c #B9B9B8",
"k	c #959594",
"l	c #565350",
"m	c #CECECE",
"n	c #BEBEBC",
"o	c #C4C4C2",
"p	c #C6C6C5",
"q	c #C3C3C2",
"r	c #BFBFBE",
"s	c #B6B6B5",
"t	c #AEAEAD",
"u	c #A5A5A4",
"v	c #9E9E9D",
"w	c #6F6F6E",
"x	c #121212",
"y	c #0A0A0A",
"z	c #BDBDBD",
"A	c #A6A6A5",
"B	c #AAAAA8",
"C	c #ADADAB",
"D	c #AEAEAC",
"E	c #ABABAA",
"F	c #A7A7A6",
"G	c #A1A1A0",
"H	c #9A9A99",
"I	c #949492",
"J	c #8D8D8B",
"K	c #232323",
"L	c #4A4A4A",
"M	c #4A4A49",
"N	c #4C4C4B",
"O	c #4C4C4C",
"P	c #4B4B4A",
"Q	c #464646",
"R	c #434343",
"S	c #414140",
"T	c #343433",
"U	c #1F1F1E",
"                ",
"                ",
"                ",
"                ",
"          #@    ",
" ####  #@ #$ #@ ",
"#%&*%###+$=$=$  ",
"#&-;>>>>>,'@'=  ",
"#);!~~+@$$@{@$$@",
"#;]^//(_:='@'=<[",
"#;}|1231#$=$=$4 ",
"#567890#@a#$b#@ ",
"#cdeffghij#@k4  ",
"#lmnopqrstuvwx  ",
"yzABCDEFGHIJ4   ",
"KLMNONP4QRSTU   "};
