/* XPM */
static const char * assistant_icon[] = {
"18 17 75 1",
" 	c None",
".	c #7A7A7A",
"+	c #F5F5F5",
"@	c #5A5A5A",
"#	c #000000",
"$	c #737373",
"%	c #F0F0F0",
"&	c #F6F6F6",
"*	c #F9F9F9",
"=	c #F7F7F7",
"-	c #F8F8F8",
";	c #454545",
">	c #857838",
",	c #9D8C46",
"'	c #71742A",
")	c #383838",
"!	c #BCBCBC",
"~	c #BDBDBD",
"{	c #D5D5D5",
"]	c #EBEBEB",
"^	c #ECECEC",
"/	c #B7A354",
"(	c #B7A654",
"_	c #A0A14E",
":	c #8A8B25",
"<	c #9D9D9D",
"[	c #C2C2C2",
"}	c #C4C4C4",
"|	c #C5C5C5",
"1	c #BFBFBF",
"2	c #D7C48C",
"3	c #D6D08D",
"4	c #BDB344",
"5	c #444444",
"6	c #484848",
"7	c #494949",
"8	c #181918",
"9	c #E9E3BC",
"0	c #CBBC5E",
"a	c #181818",
"b	c #1C1C1C",
"c	c #1D1D1D",
"d	c #4F4F4F",
"e	c #F7F4E3",
"f	c #DCCF81",
"g	c #322F32",
"h	c #484648",
"i	c #5E5D5E",
"j	c #747474",
"k	c #8A8A8A",
"l	c #C3B38B",
"m	c #D9CC99",
"n	c #D3C693",
"o	c #333334",
"p	c #312C2B",
"q	c #242627",
"r	c #161516",
"s	c #1D191D",
"t	c #110D10",
"u	c #2F2B2F",
"v	c #413F41",
"w	c #535153",
"x	c #666466",
"y	c #787778",
"z	c #1D1D1B",
"A	c #252223",
"B	c #131314",
"C	c #0D0D0C",
"D	c #0A0A0B",
"E	c #0A0A0D",
"F	c #0A0B0B",
"G	c #0A0B0A",
"H	c #100F12",
"I	c #1C181C",
"J	c #292627",
"   .........      ",
"   .+++++++@      ",
"   .+++++++@      ",
"  #$%&+*=-=;##>,  ",
"''#)!~{{]]^)##/(  ",
"_:##<<[}||1###2/  ",
"34###5667;8##5    ",
"90ab#######c#d    ",
"efaghijkjihga;    ",
" 888l8m8n8n88o    ",
" 88n8n8n8n8n8p    ",
" q88n8n8n8n88r    ",
" s88888888888t    ",
" 8uvwxykyxwvuz    ",
"  8ABCDEFGHIJ     ",
"                  ",
"                  "};
