/* XPM */
static const char * car_icon[] = {
"16 16 22 1",
" 	c None",
".	c #FFFFFF",
"+	c #404040",
"@	c #5F5F5F",
"#	c #5C6064",
"$	c #808080",
"%	c #BFBFBF",
"&	c #54606C",
"*	c #384048",
"=	c #555555",
"-	c #7B7F83",
";	c #979FA7",
">	c #AAAEB2",
",	c #4C5054",
"'	c #000000",
")	c #708090",
"!	c #1C2024",
"~	c #6F6F6F",
"{	c #8E8E8E",
"]	c #BBBFC3",
"^	c #AFAFAF",
"/	c #EFEFEF",
"                ",
"                ",
"                ",
"                ",
"        +@@@#   ",
"       $%$$$&#  ",
"  $$$$$%%   $*=%",
" %-;;;;*>;;-@,;*",
" $&'$'&*;)&'$'&*",
" $*$&$!!**!$&$!!",
" %~'$'-;;;-'$'{]",
"   ^@{/    %@{/ ",
"                ",
"                ",
"                ",
"                "};
