/* XPM */
static const char * handy_icon[] = {
"16 16 41 1",
" 	c None",
".	c #080C08",
"+	c #202830",
"@	c #404850",
"#	c #8591A5",
"$	c #616969",
"%	c #95A1B6",
"&	c #9D999D",
"*	c #485059",
"=	c #95AABE",
"-	c #8D99AE",
";	c #798995",
">	c #303038",
",	c #8DA1B6",
"'	c #85899D",
")	c #303840",
"!	c #71818D",
"~	c #596971",
"{	c #505959",
"]	c #A5B2C6",
"^	c #79899D",
"/	c #C6DAEE",
"(	c #506161",
"_	c #202428",
":	c #69798D",
"<	c #697985",
"[	c #B6CADE",
"}	c #A5A1A5",
"|	c #BECEE6",
"1	c #384048",
"2	c #697171",
"3	c #697185",
"4	c #617179",
"5	c #959195",
"6	c #AEC2DE",
"7	c #616979",
"8	c #797D85",
"9	c #A5BACE",
"0	c #9DAABE",
"a	c #282828",
"b	c #485050",
"                ",
"               .",
"              + ",
"         @#@$%& ",
"        *=-#;-> ",
"        -,-')=! ",
"       ;~{]---~ ",
"       )^/(_={{ ",
"      ;{-#):;.  ",
"     @-'<--[@   ",
"    }-*-@-|:    ",
"    >%--=%12    ",
" &!-#34*4_5     ",
">6-4--%7        ",
" 8_,90a         ",
"    b           "};
