/* XPM */
static const char * man_icon[] = {
"24 24 284 2",
"  	c None",
". 	c #FFFFFF",
"+ 	c #FEFFFE",
"@ 	c #FDFFFC",
"# 	c #FEFFFC",
"$ 	c #FFFFFE",
"% 	c #FFFDFF",
"& 	c #FEFCFE",
"* 	c #FFFDFE",
"= 	c #FFFEFD",
"- 	c #FFFEFB",
"; 	c #FFFFFC",
"> 	c #FFFFFD",
", 	c #FDFFFB",
"' 	c #FCFFFB",
") 	c #FDFEFC",
"! 	c #FBFCFC",
"~ 	c #FCFDFF",
"{ 	c #FCFCFF",
"] 	c #FDFCFD",
"^ 	c #FEFDF9",
"/ 	c #FCFFFD",
"( 	c #FBFEFE",
"_ 	c #FAFEFE",
": 	c #EEF4F6",
"< 	c #F8F8FC",
"[ 	c #FCFBFE",
"} 	c #FAFAFD",
"| 	c #FCFCFE",
"1 	c #FEFEFE",
"2 	c #FDFDFD",
"3 	c #FEFDFE",
"4 	c #FEFCFD",
"5 	c #FBFDFF",
"6 	c #E0DBE1",
"7 	c #807D87",
"8 	c #3B3F48",
"9 	c #42414E",
"0 	c #5A5865",
"a 	c #767580",
"b 	c #9E9DA5",
"c 	c #F8F7FA",
"d 	c #FDFDFF",
"e 	c #FFFEFF",
"f 	c #FEFCFF",
"g 	c #FBFEFF",
"h 	c #EFEBEF",
"i 	c #715C6C",
"j 	c #483447",
"k 	c #494051",
"l 	c #423A4F",
"m 	c #4F485B",
"n 	c #453E50",
"o 	c #373040",
"p 	c #6F6975",
"q 	c #DFDBE1",
"r 	c #FCFCFC",
"s 	c #FEFBFF",
"t 	c #FAFEFF",
"u 	c #C3B9C2",
"v 	c #8D6980",
"w 	c #552D48",
"x 	c #482E46",
"y 	c #463551",
"z 	c #42334D",
"A 	c #44354C",
"B 	c #47384D",
"C 	c #3B2D3E",
"D 	c #8D828F",
"E 	c #FBFAFB",
"F 	c #FBFBFB",
"G 	c #FDFCFE",
"H 	c #FDFAFD",
"I 	c #C2A0AC",
"J 	c #E3ADC0",
"K 	c #C18B9F",
"L 	c #754458",
"M 	c #664662",
"N 	c #5F3D5C",
"O 	c #55334E",
"P 	c #503448",
"Q 	c #48364A",
"R 	c #41364E",
"S 	c #BEBBC7",
"T 	c #FBFAFE",
"U 	c #FCFCFB",
"V 	c #FDFEFE",
"W 	c #FBFDFC",
"X 	c #F5EBEE",
"Y 	c #C999A4",
"Z 	c #E5AAB8",
"` 	c #F0B7C2",
" .	c #DFA3B0",
"..	c #CB96AE",
"+.	c #C88CAB",
"@.	c #C88AA6",
"#.	c #B37E94",
"$.	c #69415D",
"%.	c #442B4D",
"&.	c #A9A4B5",
"*.	c #FDFCFF",
"=.	c #FEFEFB",
"-.	c #FEFFFF",
";.	c #EADBDF",
">.	c #D7A9B4",
",.	c #E3AFBA",
"'.	c #DFA9B3",
").	c #EEB4BE",
"!.	c #EAB4BE",
"~.	c #F2B5C5",
"{.	c #EEAEC2",
"].	c #E6AEC2",
"^.	c #7A526E",
"/.	c #442B4B",
"(.	c #D2CED9",
"_.	c #FCFDFA",
":.	c #FCFAFB",
"<.	c #BEA0A9",
"[.	c #B98995",
"}.	c #E9B6C0",
"|.	c #E0AAB5",
"1.	c #E7ACB5",
"2.	c #E8AAB1",
"3.	c #E8A5AE",
"4.	c #E5A5B1",
"5.	c #CF9BAD",
"6.	c #61425A",
"7.	c #5F5067",
"8.	c #F8F6FA",
"9.	c #FEFEFF",
"0.	c #FEF6FB",
"a.	c #CE9EAD",
"b.	c #8B5361",
"c.	c #A16B76",
"d.	c #E0A4B1",
"e.	c #E4A7B2",
"f.	c #EFB5C0",
"g.	c #E5A9AF",
"h.	c #DDA4AD",
"i.	c #9B7081",
"j.	c #442D41",
"k.	c #A9A2AD",
"l.	c #F8F8F8",
"m.	c #EEEDED",
"n.	c #F0DBE3",
"o.	c #F0B0C4",
"p.	c #D998A9",
"q.	c #CD919F",
"r.	c #DB96A6",
"s.	c #945665",
"t.	c #855B6C",
"u.	c #C1929B",
"v.	c #DFADB8",
"w.	c #784C61",
"x.	c #57394E",
"y.	c #EBE3EB",
"z.	c #D3D0DF",
"A.	c #6D6885",
"B.	c #464064",
"C.	c #393155",
"D.	c #876580",
"E.	c #E298AC",
"F.	c #E69CAE",
"G.	c #F0A8BC",
"H.	c #E292A4",
"I.	c #CB8292",
"J.	c #B9748A",
"K.	c #B57285",
"L.	c #E0A2B6",
"M.	c #93506B",
"N.	c #C38DA6",
"O.	c #FBF0F8",
"P.	c #3C365C",
"Q.	c #2F265D",
"R.	c #34296A",
"S.	c #2B205E",
"T.	c #816188",
"U.	c #B66C7E",
"V.	c #E79FAD",
"W.	c #F5ABC1",
"X.	c #EB99AC",
"Y.	c #F0A7B4",
"Z.	c #F3AABC",
"`.	c #E8ABBA",
" +	c #D99EB0",
".+	c #CE94A9",
"++	c #E1BFCD",
"@+	c #FFFAFE",
"#+	c #271F51",
"$+	c #241A55",
"%+	c #271D5B",
"&+	c #201752",
"*+	c #60476D",
"=+	c #D390A2",
"-+	c #C68191",
";+	c #BB778D",
">+	c #CF8597",
",+	c #D2909F",
"'+	c #E2ABB9",
")+	c #DCB1B9",
"!+	c #B78893",
"~+	c #E3C8D2",
"{+	c #FCFAFD",
"]+	c #FDF8FC",
"^+	c #1F1551",
"/+	c #1E1452",
"(+	c #160C49",
"_+	c #150C44",
":+	c #482F57",
"<+	c #E1A1B4",
"[+	c #DF96A9",
"}+	c #D48EA8",
"|+	c #BD768A",
"1+	c #C98899",
"2+	c #CA99A8",
"3+	c #CC9AA6",
"4+	c #AE8C9A",
"5+	c #D2C9D4",
"6+	c #FCF9FE",
"7+	c #FEFBFD",
"8+	c #130947",
"9+	c #0D0441",
"0+	c #160D48",
"a+	c #0F073D",
"b+	c #48335C",
"c+	c #DEA5B9",
"d+	c #B26B81",
"e+	c #E2A1BB",
"f+	c #DC9DB0",
"g+	c #CF91A3",
"h+	c #B68497",
"i+	c #D39CB5",
"j+	c #573D5C",
"k+	c #63597D",
"l+	c #F8F1FC",
"m+	c #FCFBFA",
"n+	c #07013A",
"o+	c #120945",
"p+	c #090439",
"q+	c #1B1538",
"r+	c #A88391",
"s+	c #DBA4B6",
"t+	c #D3A4BA",
"u+	c #996E7C",
"v+	c #A3707F",
"w+	c #BE90A3",
"x+	c #7E5B77",
"y+	c #311C50",
"z+	c #322967",
"A+	c #A5A5BE",
"B+	c #FBFDF8",
"C+	c #0C043C",
"D+	c #110842",
"E+	c #0B033D",
"F+	c #08023A",
"G+	c #060430",
"H+	c #2E1B32",
"I+	c #8B687A",
"J+	c #8A6576",
"K+	c #9B7182",
"L+	c #AC7E96",
"M+	c #63486B",
"N+	c #251642",
"O+	c #251756",
"P+	c #2E296A",
"Q+	c #4D517B",
"R+	c #E9EDF4",
"S+	c #0E053A",
"T+	c #0A0339",
"U+	c #100641",
"V+	c #110743",
"W+	c #0F052A",
"X+	c #4E3D56",
"Y+	c #7F657E",
"Z+	c #846184",
"`+	c #3B1D47",
" @	c #1A1145",
".@	c #201852",
"+@	c #1E1858",
"@@	c #262360",
"#@	c #38386E",
"$@	c #9497BA",
"%@	c #FAFDFF",
"&@	c #FFFEFE",
"                                                ",
"                                                ",
"                                                ",
"                                                ",
"                                                ",
"                  6 7 8 9 0 a b                 ",
"                h i j k l m n o p q             ",
"                u v w x y z A B C D             ",
"                I J K L M N O P Q R S           ",
"                Y Z `  ...+.@.#.$.%.&.          ",
"                >.,.'.).!.~.{.].^./.(.          ",
"              <.[.}.|.1.2.3.4.5.6.7.            ",
"              a.b.c.d.e.f.g.h.i.j.k.            ",
"              o.p.q.r.s.t.u.v.w.x.              ",
"    z.A.B.C.D.E.F.G.H.I.J.K.L.M.N.              ",
"    P.Q.R.S.T.U.V.W.X.Y.Z.`  +.+++              ",
"    #+$+%+&+*+=+-+;+>+,+'+)+!+~+                ",
"    ^+/+(+_+:+<+[+}+|+1+2+3+4+5+                ",
"    8+9+0+a+b+c+d+e+f+g+h+i+j+k+                ",
"    n+o+0+p+q+r+s+t+u+v+w+x+y+z+A+              ",
"    C+D+E+F+G+H+I+J+K+L+M+N+O+P+Q+R             ",
"    S+T+U+V+S+W+X+Y+Z+`+ @.@+@@@#@$             ",
"                                                ",
"                                                "};
