/* XPM */
static const char * others_icon[] = {
"16 16 10 1",
" 	c None",
".	c #000000",
"+	c #303030",
"@	c #DCDCDC",
"#	c #808080",
"$	c #9A8739",
"%	c #625E29",
"&	c #CEBE85",
"*	c #43421C",
"=	c #A0A0A0",
"     ++++++     ",
"   ++@@@@@@++   ",
"  +@@@@@@@@@@+  ",
" +@@@@++++@@@@+ ",
" +@@#+    +#@@+ ",
"+@@@+      +@@@+",
"+@@+   $%   +@@+",
"+@@+  $@&%  +@@+",
"+@@+  %&$*  +@@+",
"+@@+   *%   +@@+",
"+@@@+  =+  +@@@+",
" +@@#+ =+ +#@@+ ",
" +@@@@ =+ @@@@+ ",
"  +@@  =+  @@+  ",
"   ++  =+  ++   ",
"       ++       "};
