/* XPM */
static const char * others_icon[] = {
"16 16 18 1",
" 	c None",
".	c #000000",
"+	c #B89243",
"@	c #A6823C",
"#	c #F7DCA5",
"$	c #937435",
"%	c #F7C35A",
"&	c #D8B66E",
"*	c #F7D48C",
"=	c #F7C96D",
"-	c #D8B15F",
";	c #D8BA7B",
">	c #D8AB4E",
",	c #876A31",
"'	c #C9A45B",
")	c #1A1A1A",
"!	c #221C12",
"~	c #BE9544",
"                ",
"                ",
"                ",
"      .+@.      ",
"     .#$%&.     ",
"     *. .=@     ",
"     -. .;.     ",
"        =>.     ",
"       ,'.      ",
"       >>.      ",
"       ).       ",
"       !.       ",
"       *~       ",
"       ..       ",
"                ",
"                "};
