/* XPM */
static const char * pager_icon[] = {
"16 16 107 2",
"  	c None",
". 	c #515151",
"+ 	c #526646",
"@ 	c #B6B6B6",
"# 	c #A8A9A8",
"$ 	c #909790",
"% 	c #7AAA7A",
"& 	c #424242",
"* 	c #898989",
"= 	c #979997",
"- 	c #D0EFD0",
"; 	c #D9FED9",
"> 	c #D6FED6",
", 	c #C2F2C2",
"' 	c #8ABA86",
") 	c #82B282",
"! 	c #7A7A7A",
"~ 	c #4E4E4E",
"{ 	c #838383",
"] 	c #A6B9A6",
"^ 	c #D1FED1",
"/ 	c #CEFECE",
"( 	c #B6E6B6",
"_ 	c #8ABE8A",
": 	c #8EBE8E",
"< 	c #86B286",
"[ 	c #8B8B8B",
"} 	c #979C97",
"| 	c #CAFAC6",
"1 	c #C6F6C6",
"2 	c #AADAAA",
"3 	c #96C696",
"4 	c #9ECE9E",
"5 	c #9D9D9D",
"6 	c #A7CAA6",
"7 	c #BEF2BE",
"8 	c #A6D6A6",
"9 	c #92C292",
"0 	c #9ACA9A",
"a 	c #A2D2A2",
"b 	c #96C296",
"c 	c #717171",
"d 	c #96A796",
"e 	c #B3DFB3",
"f 	c #A2CEA2",
"g 	c #6E9E6E",
"h 	c #6A9A6A",
"i 	c #6E966E",
"j 	c #72A272",
"k 	c #4D4D4D",
"l 	c #AAAAAA",
"m 	c #9BBB9B",
"n 	c #A2CAA2",
"o 	c #7EAA7E",
"p 	c #7EAE7E",
"q 	c #9ACE9A",
"r 	c #A2D6A2",
"s 	c #8A8A8A",
"t 	c #929F92",
"u 	c #96BC96",
"v 	c #A0CCA0",
"w 	c #98BE98",
"x 	c #8FAA8F",
"y 	c #879887",
"z 	c #C6C6C6",
"A 	c #737373",
"B 	c #929292",
"C 	c #939993",
"D 	c #808380",
"E 	c #888A88",
"F 	c #98A098",
"G 	c #ADB4AD",
"H 	c #CDCDCD",
"I 	c #B2B2B2",
"J 	c #444444",
"K 	c #6A6A6A",
"L 	c #494949",
"M 	c #6C6C6C",
"N 	c #A6A6A6",
"O 	c #B4B4B4",
"P 	c #BFBFBF",
"Q 	c #B1B1B1",
"R 	c #878787",
"S 	c #767676",
"T 	c #7E7E7E",
"U 	c #595959",
"V 	c #4C4C4C",
"W 	c #6B6B6B",
"X 	c #9F9F9F",
"Y 	c #A8A8A8",
"Z 	c #8F8F8F",
"` 	c #575757",
" .	c #727272",
"..	c #797979",
"+.	c #5B5B5B",
"@.	c #464646",
"#.	c #454545",
"$.	c #5D5D5D",
"%.	c #7C7C7C",
"&.	c #949494",
"*.	c #9C9C9C",
"=.	c #A1A1A1",
"-.	c #969696",
";.	c #919191",
">.	c #545454",
",.	c #989898",
"'.	c #868686",
"    . . . . . . + .             ",
"  . @ # $ $ $ $ % $ .           ",
"  & * = - ; > , ' ) ! .         ",
"    ~ { ] ^ / ( _ : < .         ",
"    & [ } | 1 2 : 3 4 ! .       ",
"      ~ 5 6 7 8 9 0 a b .       ",
"      & c d e f g h i j ! .     ",
"        k l m n o p : q r .     ",
"        & s t u v w x y ! z .   ",
"      & ~ A B C D E F G H I J   ",
"    & K K L M N @ O P P Q R &   ",
"  & K S T U V W X Y Z A ` k B & ",
"  &  .T s ..K +.@.J #.$.%.l I & ",
"    & s &.*.N =.-.;.5 I I @ &   ",
"      & >.T ;.=.l ,.'. .>.&     ",
"          & & & & & & &         "};
