/* XPM */
static const char * phone_icon[] = {
"16 16 45 1",
" 	c None",
".	c #101010",
"+	c #718171",
"@	c #857185",
"#	c #182018",
"$	c #8D8D95",
"%	c #406961",
"&	c #404050",
"*	c #203020",
"=	c #100010",
"-	c #000000",
";	c #001000",
">	c #304040",
",	c #616971",
"'	c #405061",
")	c #203838",
"!	c #507171",
"~	c #202030",
"{	c #101020",
"]	c #405050",
"^	c #101810",
"/	c #717169",
"(	c #304848",
"_	c #9DAEB6",
":	c #A5C6C6",
"<	c #617185",
"[	c #506161",
"}	c #304030",
"|	c #504050",
"1	c #508185",
"2	c #506171",
"3	c #404040",
"4	c #182820",
"5	c #618185",
"6	c #403040",
"7	c #303030",
"8	c #959595",
"9	c #598171",
"0	c #303040",
"a	c #9DA19D",
"b	c #AEB2B6",
"c	c #E6E2E6",
"d	c #EEEAEE",
"e	c #203030",
"f	c #71818D",
"                ",
"       .+@+@    ",
"   #$%&*=-=;>%, ",
"   '-&)-----!~-{",
" --]-; ------^=>",
" / ,(.----------",
"._ --:<[[[&}&---",
"[|   $12[2]3>4  ",
"@-   5<[[[&}67  ",
">8  ]592%[]0>7- ",
" ab+c9,[ddd>07- ",
"  >7c(-------'e ",
"   -c^-------}f ",
"    ----------  ",
"                ",
"                "};
