/* XPM */
static const char * woman_icon[] = {
"24 24 298 2",
"  	c None",
". 	c #FEFEFE",
"+ 	c #FEFFFE",
"@ 	c #FEFFFD",
"# 	c #FDFFFD",
"$ 	c #FDFFFC",
"% 	c #FFFFFF",
"& 	c #FDFFFE",
"* 	c #FCFFFD",
"= 	c #FBFFFD",
"- 	c #FBFFFC",
"; 	c #FDFDFD",
"> 	c #FCFCFC",
", 	c #FAFAFA",
"' 	c #FCFCFD",
") 	c #F5F5F8",
"! 	c #CBCAD2",
"~ 	c #B7B6BE",
"{ 	c #A4A4AC",
"] 	c #BAB9C2",
"^ 	c #DBDAE2",
"/ 	c #F8F8FA",
"( 	c #FBFBFB",
"_ 	c #C9C8CA",
": 	c #736A7E",
"< 	c #50455C",
"[ 	c #544A61",
"} 	c #544960",
"| 	c #4D435A",
"1 	c #4F455C",
"2 	c #837F88",
"3 	c #F1F1F1",
"4 	c #868686",
"5 	c #3F3D3F",
"6 	c #58465B",
"7 	c #57435A",
"8 	c #59455C",
"9 	c #645067",
"0 	c #59445C",
"a 	c #544057",
"b 	c #3F3741",
"c 	c #787878",
"d 	c #FEFEFD",
"e 	c #FFFDFA",
"f 	c #B3AEB0",
"g 	c #372E39",
"h 	c #2C202B",
"i 	c #36182D",
"j 	c #59334A",
"k 	c #73495C",
"l 	c #936B7A",
"m 	c #624352",
"n 	c #503A4D",
"o 	c #564956",
"p 	c #413A3F",
"q 	c #D6D4D6",
"r 	c #FDFDFE",
"s 	c #FEFFFF",
"t 	c #FEFDFA",
"u 	c #FEFDFD",
"v 	c #FEFCFE",
"w 	c #F6F4F1",
"x 	c #5C4F58",
"y 	c #371D34",
"z 	c #5F3E51",
"A 	c #B68593",
"B 	c #D195A8",
"C 	c #E6A2B5",
"D 	c #E3A2AD",
"E 	c #BD8A93",
"F 	c #5E3A4C",
"G 	c #3B2236",
"H 	c #473442",
"I 	c #9E959F",
"J 	c #FDFDFF",
"K 	c #FCFFFF",
"L 	c #FFFCFB",
"M 	c #FFFBFD",
"N 	c #FFFCFF",
"O 	c #CAC8CD",
"P 	c #2A1D2B",
"Q 	c #472939",
"R 	c #A37780",
"S 	c #D09C9C",
"T 	c #DBA2AB",
"U 	c #E6A7B7",
"V 	c #EBAAB8",
"W 	c #E6A5B1",
"X 	c #BD7C8C",
"Y 	c #5A3345",
"Z 	c #2A1726",
"` 	c #857D86",
" .	c #FCFDFF",
"..	c #FFFEFD",
"+.	c #FDFAFB",
"@.	c #FEF8FD",
"#.	c #867782",
"$.	c #391F2E",
"%.	c #5F394D",
"&.	c #C79AAC",
"*.	c #C8A0A9",
"=.	c #D0A3AB",
"-.	c #E2ACB3",
";.	c #E5A7AD",
">.	c #DA979F",
",.	c #CB868F",
"'.	c #8D6473",
").	c #2A1725",
"!.	c #817983",
"~.	c #FDFEFF",
"{.	c #FBFDFB",
"].	c #FCF2F0",
"^.	c #503039",
"/.	c #8C6172",
"(.	c #6E3F5A",
"_.	c #7E5377",
":.	c #775A77",
"<.	c #8F6D7B",
"[.	c #D7A9AC",
"}.	c #D8A3A3",
"|.	c #C89296",
"1.	c #C4939B",
"2.	c #81616F",
"3.	c #3F2C3B",
"4.	c #857C86",
"5.	c #FEFEFF",
"6.	c #F8FBF8",
"7.	c #D2C5C3",
"8.	c #411B2B",
"9.	c #BC8AA0",
"0.	c #A6728A",
"a.	c #89567A",
"b.	c #6B4268",
"c.	c #643C53",
"d.	c #9B727E",
"e.	c #825968",
"f.	c #8F697E",
"g.	c #AB889F",
"h.	c #6B5164",
"i.	c #321F2E",
"j.	c #8A828B",
"k.	c #FAF8F8",
"l.	c #8B7D83",
"m.	c #42233C",
"n.	c #855872",
"o.	c #D59EAE",
"p.	c #B5778E",
"q.	c #8A4D6B",
"r.	c #A7738A",
"s.	c #966F84",
"t.	c #623E5F",
"u.	c #714D77",
"v.	c #785379",
"w.	c #4C2F47",
"x.	c #24111F",
"y.	c #9D949D",
"z.	c #FEFDFF",
"A.	c #FFFDFF",
"B.	c #E9DFE9",
"C.	c #5C4F5F",
"D.	c #3A283A",
"E.	c #775866",
"F.	c #C6949B",
"G.	c #B77A7E",
"H.	c #C18488",
"I.	c #E8A8AF",
"J.	c #CD8B9A",
"K.	c #905267",
"L.	c #7E4660",
"M.	c #8D5E79",
"N.	c #775364",
"O.	c #321822",
"P.	c #B8AAB0",
"Q.	c #FDFBFD",
"R.	c #FFFFFC",
"S.	c #E7E2E7",
"T.	c #60505D",
"U.	c #492E3D",
"V.	c #6A424F",
"W.	c #BC888F",
"X.	c #8F5356",
"Y.	c #B2717B",
"Z.	c #A86573",
"`.	c #B47282",
" +	c #B77A8C",
".+	c #BA8999",
"++	c #AB8492",
"@+	c #32141D",
"#+	c #50363F",
"$+	c #CCBEC3",
"%+	c #FFFDFE",
"&+	c #FFFFF9",
"*+	c #FEFEFA",
"=+	c #F8F3F5",
"-+	c #846E77",
";+	c #582D39",
">+	c #99626E",
",+	c #C38991",
"'+	c #C0878C",
")+	c #F4B8C8",
"!+	c #DEA1B3",
"~+	c #9B6070",
"{+	c #8F5E6D",
"]+	c #B38E9C",
"^+	c #583C47",
"/+	c #3F222D",
"(+	c #593F48",
"_+	c #D9CED3",
":+	c #FEFCFD",
"<+	c #FFFFFD",
"[+	c #FEFCFA",
"}+	c #FAEEEE",
"|+	c #E1C0C4",
"1+	c #C78D96",
"2+	c #CB8A94",
"3+	c #B3777E",
"4+	c #C69096",
"5+	c #B4767F",
"6+	c #B8808B",
"7+	c #AC7C88",
"8+	c #A67F8F",
"9+	c #533848",
"0+	c #291426",
"a+	c #4D3140",
"b+	c #5B4149",
"c+	c #E2D7DC",
"d+	c #D8D5E4",
"e+	c #CDBEC9",
"f+	c #D6B0B1",
"g+	c #D6A3A4",
"h+	c #C48586",
"i+	c #B47476",
"j+	c #986066",
"k+	c #AC7B81",
"l+	c #C48D93",
"m+	c #B6868D",
"n+	c #906C76",
"o+	c #301722",
"p+	c #1E081B",
"q+	c #2F1631",
"r+	c #381B2D",
"s+	c #755B64",
"t+	c #EADFE4",
"u+	c #958FB2",
"v+	c #CAB0C9",
"w+	c #E1A7AB",
"x+	c #CA8C8B",
"y+	c #BC7C79",
"z+	c #A36765",
"A+	c #966265",
"B+	c #7D5057",
"C+	c #7F515C",
"D+	c #8D6671",
"E+	c #50343F",
"F+	c #1F0A16",
"G+	c #270F22",
"H+	c #1E0418",
"I+	c #5E3F4F",
"J+	c #735961",
"K+	c #FCF1F6",
"L+	c #877FB1",
"M+	c #A288AE",
"N+	c #D299A0",
"O+	c #BE7F81",
"P+	c #A6676D",
"Q+	c #8D5B56",
"R+	c #7F5657",
"S+	c #764E59",
"T+	c #7B4D62",
"U+	c #8A5B6F",
"V+	c #5B3343",
"W+	c #412439",
"X+	c #311934",
"Y+	c #341B2A",
"Z+	c #50333D",
"`+	c #795F6B",
" @	c #FFF8FE",
".@	c #FFFCFE",
"+@	c #FFFFFE",
"@@	c #8B81BC",
"#@	c #826B9C",
"$@	c #B48795",
"%@	c #AE7479",
"&@	c #A46772",
"*@	c #9C6D68",
"=@	c #845C5D",
"-@	c #795057",
";@	c #7F4B5D",
">@	c #935A6D",
",@	c #895766",
"'@	c #401E36",
")@	c #381F42",
"!@	c #493342",
"~@	c #4A343B",
"{@	c #AC99A5",
"]@	c #FFFAFF",
"^@	c #FEFDFE",
"/@	c #FFFFFB",
"                                                ",
"                                                ",
"                                                ",
"                                                ",
"                                                ",
"                  _ : < [ } | 1 2               ",
"                4 5 6 7 8 9 0 a b c             ",
"              f g h i j k l m n o p             ",
"              x y z A B C D E F G H I           ",
"            O P Q R S T U V W X Y Z `           ",
"            #.$.%.&.*.=.-.;.>.,.'.).!.          ",
"            ^./.(._.:.<.[.}.|.1.2.3.4.          ",
"          7.8.9.0.a.b.c.d.e.f.g.h.i.j.          ",
"          l.m.n.o.p.q.r.s.t.u.v.w.x.y.          ",
"          C.D.E.F.G.H.I.J.K.L.M.N.O.P.          ",
"          T.U.V.W.X.Y.Z.`  +.+++@+#+            ",
"          -+;+>+,+'+)+!+~+{+]+^+/+(+            ",
"          |+1+2+3+4+5+6+7+8+9+0+a+b+            ",
"    d+e+f+g+h+i+j+k+l+m+n+o+p+q+r+s+            ",
"    u+v+w+x+y+z+A+B+C+D+E+F+G+H+I+J+            ",
"    L+M+N+O+P+Q+R+S+T+U+V+W+X+Y+Z+`+            ",
"    @@#@$@%@&@*@=@-@;@>@,@'@)@!@~@{@            ",
"                                                ",
"                                                "};
